<svg width="27" height="33" viewBox="0 0 27 33" fill="none" xmlns="http://www.w3.org/2000/svg">
<path d="M1 7.5V5H6.59211L9.55263 1H16.1786L19.4211 5H26V7.5H22.4912V32H19.4211H16.1786H12.5132H9.55263H6.59211H3.63158V7.5H1Z" fill="white"/>
<path d="M3.63158 7.5H1V5H6.59211M3.63158 7.5V32H6.59211M3.63158 7.5H6.59211M22.4912 7.5H26V5H19.4211M22.4912 7.5V32H19.4211M22.4912 7.5H19.4211M19.4211 7.5V32M19.4211 7.5H16.1786M19.4211 32H16.1786M16.1786 32V7.5M16.1786 32H12.5132M16.1786 7.5H12.5132M9.55263 7.5V32M9.55263 7.5H6.59211M9.55263 7.5H12.5132M9.55263 32H6.59211M9.55263 32H12.5132M6.59211 32V7.5M12.5132 7.5V32M6.59211 5L9.55263 1H16.1786L19.4211 5M6.59211 5H19.4211" stroke="#FF0000" stroke-width="2"/>
</svg>
